<svg xmlns="http://www.w3.org/2000/svg" viewBox="0 0 500 500"><g id="freepik--background-complete--inject-2"><rect x="417.41" y="71.15" width="26.48" height="11.19" transform="translate(861.29 153.49) rotate(-180)" style="fill:#ebebeb"></rect><path d="M459,68.6H431.8V56.66H459Zm-26.48-.75h25.73V57.41H432.55Z" style="fill:#ebebeb"></path><path d="M361.57,281.14H334.34V269.2h27.23Zm-26.48-.75h25.73V270H335.09Z" style="fill:#ebebeb"></path><path d="M376.34,267H349.11V255.09h27.23Zm-26.48-.75h25.73V255.84H349.86Z" style="fill:#ebebeb"></path><rect x="364.2" y="269.58" width="26.48" height="11.19" transform="translate(754.88 550.35) rotate(180)" style="fill:#ebebeb"></rect><path d="M165.66,120.51H138.43V108.57h27.23Zm-26.48-.75h25.73V109.32H139.18Z" style="fill:#ebebeb"></path><rect x="153.52" y="123.05" width="26.48" height="11.19" transform="translate(333.51 257.3) rotate(180)" style="fill:#ebebeb"></rect><path d="M68.2,68.6H41V56.66H68.2Zm-26.48-.75H67.45V57.41H41.72Z" style="fill:#ebebeb"></path><path d="M83,401.41H55.74V389.47H83Zm-26.48-.75H82.22V390.22H56.49Z" style="fill:#ebebeb"></path><rect x="41.34" y="375.74" width="26.48" height="11.19" transform="translate(109.16 762.67) rotate(180)" style="fill:#ebebeb"></rect><rect x="417.41" y="389.85" width="26.48" height="11.19" transform="translate(861.29 790.89) rotate(-180)" style="fill:#ebebeb"></rect><polygon points="94.32 453.04 93.32 453.04 93.32 327.21 93.42 327.08 120.05 290.73 120.05 222.56 121.05 222.56 121.05 291.05 120.95 291.19 94.32 327.54 94.32 453.04" style="fill:#ebebeb"></polygon><path d="M120.55,223.1a2.88,2.88,0,1,1,2.88-2.88A2.88,2.88,0,0,1,120.55,223.1Zm0-4.75a1.88,1.88,0,1,0,1.88,1.87A1.87,1.87,0,0,0,120.55,218.35Z" style="fill:#ebebeb"></path><polygon points="101.2 453.04 100.2 453.04 100.2 331.62 100.3 331.49 126.94 295.14 126.94 247.55 127.94 247.55 127.94 295.46 127.84 295.6 101.2 331.94 101.2 453.04" style="fill:#ebebeb"></polygon><path d="M127.44,248.09a2.88,2.88,0,1,1,2.87-2.87A2.88,2.88,0,0,1,127.44,248.09Zm0-4.75a1.88,1.88,0,1,0,1.87,1.88A1.88,1.88,0,0,0,127.44,243.34Z" style="fill:#ebebeb"></path><rect x="86.69" y="286.63" width="1" height="166.41" style="fill:#ebebeb"></rect><path d="M87.19,287.13a2.88,2.88,0,1,1,2.87-2.88A2.88,2.88,0,0,1,87.19,287.13Zm0-4.75a1.88,1.88,0,1,0,1.87,1.87A1.88,1.88,0,0,0,87.19,282.38Z" style="fill:#ebebeb"></path><polygon points="81.3 453.04 80.3 453.04 80.3 368.58 62.15 334.36 62.15 272.87 63.15 272.87 63.15 334.11 81.3 368.34 81.3 453.04" style="fill:#ebebeb"></polygon><path d="M62.65,273.37a2.88,2.88,0,1,1,2.88-2.88A2.88,2.88,0,0,1,62.65,273.37Zm0-4.75a1.88,1.88,0,1,0,1.88,1.87A1.87,1.87,0,0,0,62.65,268.62Z" style="fill:#ebebeb"></path><polygon points="74.95 453.04 73.95 453.04 73.95 372.25 52.56 334.41 52.56 293.86 53.56 293.86 53.56 334.15 74.95 371.99 74.95 453.04" style="fill:#ebebeb"></polygon><path d="M53.06,294.36a2.88,2.88,0,1,1,2.87-2.87A2.88,2.88,0,0,1,53.06,294.36Zm0-4.75a1.88,1.88,0,1,0,1.87,1.88A1.88,1.88,0,0,0,53.06,289.61Z" style="fill:#ebebeb"></path><polygon points="409.42 453.04 408.42 453.04 408.42 267.21 408.51 267.08 435.15 230.73 435.15 162.56 436.15 162.56 436.15 231.06 409.42 267.54 409.42 453.04" style="fill:#ebebeb"></polygon><path d="M435.65,163.1a2.88,2.88,0,1,1,2.87-2.88A2.88,2.88,0,0,1,435.65,163.1Zm0-4.75a1.88,1.88,0,1,0,1.87,1.87A1.88,1.88,0,0,0,435.65,158.35Z" style="fill:#ebebeb"></path><polygon points="416.3 453.04 415.3 453.04 415.3 271.62 415.4 271.49 442.03 235.13 442.03 187.55 443.03 187.55 443.03 235.46 416.3 271.94 416.3 453.04" style="fill:#ebebeb"></polygon><path d="M442.53,188.09a2.88,2.88,0,1,1,2.88-2.87A2.88,2.88,0,0,1,442.53,188.09Zm0-4.75a1.88,1.88,0,1,0,1.88,1.88A1.88,1.88,0,0,0,442.53,183.34Z" style="fill:#ebebeb"></path><rect x="401.79" y="226.63" width="1" height="226.41" style="fill:#ebebeb"></rect><path d="M402.29,227.13a2.88,2.88,0,1,1,2.87-2.88A2.88,2.88,0,0,1,402.29,227.13Zm0-4.75a1.88,1.88,0,1,0,1.87,1.87A1.88,1.88,0,0,0,402.29,222.38Z" style="fill:#ebebeb"></path><polygon points="396.4 453.04 395.4 453.04 395.4 308.58 377.25 274.36 377.25 212.87 378.25 212.87 378.25 274.11 396.4 308.34 396.4 453.04" style="fill:#ebebeb"></polygon><path d="M377.75,213.37a2.88,2.88,0,1,1,2.88-2.88A2.88,2.88,0,0,1,377.75,213.37Zm0-4.75a1.88,1.88,0,1,0,1.88,1.87A1.87,1.87,0,0,0,377.75,208.62Z" style="fill:#ebebeb"></path><polygon points="390.05 453.04 389.05 453.04 389.05 312.25 367.66 274.41 367.66 233.86 368.66 233.86 368.66 274.15 390.05 311.99 390.05 453.04" style="fill:#ebebeb"></polygon><path d="M368.16,234.36a2.88,2.88,0,1,1,2.87-2.87A2.88,2.88,0,0,1,368.16,234.36Zm0-4.75a1.88,1.88,0,1,0,1.87,1.88A1.88,1.88,0,0,0,368.16,229.61Z" style="fill:#ebebeb"></path><path d="M423.23,165.9l5.88-9.49-2.9-1.8a2.67,2.67,0,0,1-1.24-2.5,15.44,15.44,0,0,0,.06-1.67,2.65,2.65,0,0,1,1.38-2.41l3-1.61-5.28-9.85-3,1.62a2.66,2.66,0,0,1-2.77-.18,16,16,0,0,0-1.42-.88,2.67,2.67,0,0,1-1.4-2.41l.11-3.42L404.48,131l-.1,3.43a2.67,2.67,0,0,1-1.56,2.31c-.24.11-.49.24-.73.37s-.48.26-.71.4a2.65,2.65,0,0,1-2.78,0l-2.93-1.81-5.88,9.49L392.7,147a2.66,2.66,0,0,1,1.23,2.5,13.1,13.1,0,0,0-.05,1.66,2.68,2.68,0,0,1-1.39,2.41l-3,1.61,5.28,9.85,3-1.62a2.66,2.66,0,0,1,2.77.18,13.84,13.84,0,0,0,1.42.87,2.68,2.68,0,0,1,1.4,2.41l-.11,3.43,11.17.35.1-3.43a2.65,2.65,0,0,1,1.55-2.3l.74-.38c.25-.13.49-.26.72-.4a2.67,2.67,0,0,1,2.79,0Zm-9.46-7.05a9.14,9.14,0,1,1,3.75-12.38A9.14,9.14,0,0,1,413.77,158.85Z" style="fill:#ebebeb"></path><path d="M101.53,263.69l5.89-9.49-2.91-1.8a2.64,2.64,0,0,1-1.23-2.49,15.6,15.6,0,0,0,0-1.67,2.64,2.64,0,0,1,1.39-2.41l3-1.62-5.28-9.85-3,1.62a2.68,2.68,0,0,1-2.78-.18,16,16,0,0,0-1.42-.88,2.66,2.66,0,0,1-1.4-2.41L94,229.1l-11.16-.35-.1,3.43a2.67,2.67,0,0,1-1.56,2.31l-.74.37-.71.41a2.68,2.68,0,0,1-2.77,0L74,233.47,68.09,243,71,244.77a2.64,2.64,0,0,1,1.23,2.5c0,.55-.06,1.11,0,1.66a2.64,2.64,0,0,1-1.39,2.41l-3,1.62,5.28,9.84,3-1.61a2.66,2.66,0,0,1,2.78.17,15.81,15.81,0,0,0,1.41.88,2.66,2.66,0,0,1,1.4,2.41l-.1,3.42,11.16.35.11-3.43a2.64,2.64,0,0,1,1.55-2.3l.74-.37.71-.41a2.67,2.67,0,0,1,2.79,0Zm-9.45-7a9.15,9.15,0,1,1,3.74-12.39A9.15,9.15,0,0,1,92.08,256.65Z" style="fill:#ebebeb"></path><path d="M215.87,81.92,212,75.15l-2.08,1.19a1.85,1.85,0,0,1-1.95-.06,11.12,11.12,0,0,0-1-.59,1.85,1.85,0,0,1-1-1.65v-2.4h-7.82V74a1.87,1.87,0,0,1-1,1.65c-.35.18-.69.38-1,.59a1.85,1.85,0,0,1-2,.06L192,75.15l-3.91,6.77,2.08,1.2a1.85,1.85,0,0,1,.91,1.73c0,.19,0,.38,0,.57s0,.39,0,.58a1.84,1.84,0,0,1-.9,1.72l-2.09,1.21L192,95.7l2.08-1.2a1.87,1.87,0,0,1,1.95.07,11.12,11.12,0,0,0,1,.59,1.86,1.86,0,0,1,1,1.65V99.2h7.82V96.81a1.84,1.84,0,0,1,1-1.65c.35-.18.68-.38,1-.59a1.87,1.87,0,0,1,1.95-.07L212,95.7l3.91-6.77-2.08-1.2a1.86,1.86,0,0,1-.91-1.73c0-.19,0-.38,0-.58s0-.38,0-.57a1.85,1.85,0,0,1,.91-1.73Zm-7.48,3.5A6.41,6.41,0,1,1,202,79,6.41,6.41,0,0,1,208.39,85.42Z" style="fill:#ebebeb"></path></g><g id="freepik--Server--inject-2"><rect x="92.1" y="237.3" width="233.62" height="215.53" style="fill:#263238"></rect><rect x="128.41" y="244.45" width="214.3" height="44.14" style="fill:#37474f"></rect><rect x="86.68" y="244.45" width="41.73" height="44.14" transform="translate(215.09 533.04) rotate(180)" style="fill:#455a64"></rect><rect x="136.46" y="251.74" width="131.95" height="3.73" style="fill:#455a64"></rect><rect x="136.46" y="258.2" width="131.95" height="3.73" style="fill:#455a64"></rect><rect x="136.46" y="264.65" width="131.95" height="3.73" style="fill:#455a64"></rect><rect x="136.46" y="271.11" width="131.95" height="3.73" style="fill:#455a64"></rect><rect x="136.46" y="277.57" width="131.95" height="3.73" style="fill:#455a64"></rect><path d="M288.25,255.43a3.7,3.7,0,1,1-3.7-3.69A3.7,3.7,0,0,1,288.25,255.43Z" style="fill:#38956B"></path><path d="M300.43,255.43a3.7,3.7,0,1,1-3.7-3.69A3.7,3.7,0,0,1,300.43,255.43Z" style="fill:#38956B"></path><path d="M312.61,255.43a3.7,3.7,0,1,1-3.7-3.69A3.7,3.7,0,0,1,312.61,255.43Z" style="fill:#263238"></path><path d="M324.79,255.43a3.7,3.7,0,1,1-3.69-3.69A3.7,3.7,0,0,1,324.79,255.43Z" style="fill:#38956B"></path><path d="M337,255.43a3.7,3.7,0,1,1-3.69-3.69A3.7,3.7,0,0,1,337,255.43Z" style="fill:#fff"></path><path d="M288.25,266.52a3.7,3.7,0,1,1-3.7-3.7A3.7,3.7,0,0,1,288.25,266.52Z" style="fill:#38956B"></path><path d="M300.43,266.52a3.7,3.7,0,1,1-3.7-3.7A3.7,3.7,0,0,1,300.43,266.52Z" style="fill:#fff"></path><path d="M312.61,266.52a3.7,3.7,0,1,1-3.7-3.7A3.7,3.7,0,0,1,312.61,266.52Z" style="fill:#38956B"></path><path d="M324.79,266.52a3.7,3.7,0,1,1-3.69-3.7A3.69,3.69,0,0,1,324.79,266.52Z" style="fill:#fff"></path><path d="M337,266.52a3.7,3.7,0,1,1-3.69-3.7A3.69,3.69,0,0,1,337,266.52Z" style="fill:#38956B"></path><path d="M288.25,277.6a3.7,3.7,0,1,1-3.7-3.69A3.7,3.7,0,0,1,288.25,277.6Z" style="fill:#fff"></path><path d="M300.43,277.6a3.7,3.7,0,1,1-3.7-3.69A3.7,3.7,0,0,1,300.43,277.6Z" style="fill:#38956B"></path><path d="M312.61,277.6a3.7,3.7,0,1,1-3.7-3.69A3.7,3.7,0,0,1,312.61,277.6Z" style="fill:#38956B"></path><path d="M324.79,277.6a3.7,3.7,0,1,1-3.69-3.69A3.7,3.7,0,0,1,324.79,277.6Z" style="fill:#38956B"></path><path d="M337,277.6a3.7,3.7,0,1,1-3.69-3.69A3.7,3.7,0,0,1,337,277.6Z" style="fill:#263238"></path><rect x="273.85" y="251.74" width="2.13" height="29.56" style="fill:#263238"></rect><rect x="128.41" y="294.19" width="214.3" height="44.14" style="fill:#37474f"></rect><rect x="86.68" y="294.19" width="41.73" height="44.14" transform="translate(215.09 632.52) rotate(180)" style="fill:#455a64"></rect><rect x="136.46" y="301.48" width="131.95" height="3.73" style="fill:#455a64"></rect><rect x="136.46" y="307.94" width="131.95" height="3.73" style="fill:#455a64"></rect><rect x="136.46" y="314.4" width="131.95" height="3.73" style="fill:#455a64"></rect><rect x="136.46" y="320.85" width="131.95" height="3.73" style="fill:#455a64"></rect><rect x="136.46" y="327.31" width="131.95" height="3.73" style="fill:#455a64"></rect><path d="M288.25,305.17a3.7,3.7,0,1,1-3.7-3.69A3.7,3.7,0,0,1,288.25,305.17Z" style="fill:#38956B"></path><path d="M300.43,305.17a3.7,3.7,0,1,1-3.7-3.69A3.7,3.7,0,0,1,300.43,305.17Z" style="fill:#263238"></path><path d="M312.61,305.17a3.7,3.7,0,1,1-3.7-3.69A3.7,3.7,0,0,1,312.61,305.17Z" style="fill:#38956B"></path><path d="M324.79,305.17a3.7,3.7,0,1,1-3.69-3.69A3.7,3.7,0,0,1,324.79,305.17Z" style="fill:#38956B"></path><path d="M337,305.17a3.7,3.7,0,1,1-3.69-3.69A3.7,3.7,0,0,1,337,305.17Z" style="fill:#38956B"></path><circle cx="284.55" cy="316.26" r="3.7" style="fill:#38956B"></circle><path d="M300.43,316.26a3.7,3.7,0,1,1-3.7-3.7A3.7,3.7,0,0,1,300.43,316.26Z" style="fill:#fff"></path><path d="M312.61,316.26a3.7,3.7,0,1,1-3.7-3.7A3.7,3.7,0,0,1,312.61,316.26Z" style="fill:#38956B"></path><path d="M324.79,316.26a3.7,3.7,0,1,1-3.69-3.7A3.69,3.69,0,0,1,324.79,316.26Z" style="fill:#fff"></path><path d="M337,316.26a3.7,3.7,0,1,1-3.69-3.7A3.69,3.69,0,0,1,337,316.26Z" style="fill:#38956B"></path><path d="M288.25,327.34a3.7,3.7,0,1,1-3.7-3.69A3.7,3.7,0,0,1,288.25,327.34Z" style="fill:#fff"></path><path d="M300.43,327.34a3.7,3.7,0,1,1-3.7-3.69A3.7,3.7,0,0,1,300.43,327.34Z" style="fill:#38956B"></path><path d="M312.61,327.34a3.7,3.7,0,1,1-3.7-3.69A3.7,3.7,0,0,1,312.61,327.34Z" style="fill:#38956B"></path><path d="M324.79,327.34a3.7,3.7,0,1,1-3.69-3.69A3.7,3.7,0,0,1,324.79,327.34Z" style="fill:#38956B"></path><path d="M337,327.34a3.7,3.7,0,1,1-3.69-3.69A3.7,3.7,0,0,1,337,327.34Z" style="fill:#263238"></path><rect x="273.85" y="301.48" width="2.13" height="29.56" style="fill:#263238"></rect><rect x="128.41" y="343.93" width="214.3" height="44.14" style="fill:#37474f"></rect><rect x="86.68" y="343.93" width="41.73" height="44.14" transform="translate(215.09 732) rotate(180)" style="fill:#455a64"></rect><rect x="136.46" y="351.22" width="131.95" height="3.73" style="fill:#455a64"></rect><rect x="136.46" y="357.68" width="131.95" height="3.73" style="fill:#455a64"></rect><rect x="136.46" y="364.14" width="131.95" height="3.73" style="fill:#455a64"></rect><rect x="136.46" y="370.59" width="131.95" height="3.73" style="fill:#455a64"></rect><rect x="136.46" y="377.05" width="131.95" height="3.73" style="fill:#455a64"></rect><path d="M288.25,354.91a3.7,3.7,0,1,1-3.7-3.69A3.7,3.7,0,0,1,288.25,354.91Z" style="fill:#38956B"></path><path d="M300.43,354.91a3.7,3.7,0,1,1-3.7-3.69A3.7,3.7,0,0,1,300.43,354.91Z" style="fill:#fff"></path><path d="M312.61,354.91a3.7,3.7,0,1,1-3.7-3.69A3.7,3.7,0,0,1,312.61,354.91Z" style="fill:#38956B"></path><path d="M324.79,354.91a3.7,3.7,0,1,1-3.69-3.69A3.7,3.7,0,0,1,324.79,354.91Z" style="fill:#38956B"></path><path d="M337,354.91a3.7,3.7,0,1,1-3.69-3.69A3.7,3.7,0,0,1,337,354.91Z" style="fill:#38956B"></path><circle cx="284.55" cy="366" r="3.7" style="fill:#fff"></circle><path d="M300.43,366a3.7,3.7,0,1,1-3.7-3.7A3.7,3.7,0,0,1,300.43,366Z" style="fill:#263238"></path><path d="M312.61,366a3.7,3.7,0,1,1-3.7-3.7A3.7,3.7,0,0,1,312.61,366Z" style="fill:#38956B"></path><path d="M324.79,366a3.7,3.7,0,1,1-3.69-3.7A3.69,3.69,0,0,1,324.79,366Z" style="fill:#263238"></path><path d="M337,366a3.7,3.7,0,1,1-3.69-3.7A3.69,3.69,0,0,1,337,366Z" style="fill:#fff"></path><path d="M288.25,377.08a3.7,3.7,0,1,1-3.7-3.69A3.7,3.7,0,0,1,288.25,377.08Z" style="fill:#38956B"></path><path d="M300.43,377.08a3.7,3.7,0,1,1-3.7-3.69A3.7,3.7,0,0,1,300.43,377.08Z" style="fill:#38956B"></path><path d="M312.61,377.08a3.7,3.7,0,1,1-3.7-3.69A3.7,3.7,0,0,1,312.61,377.08Z" style="fill:#38956B"></path><path d="M324.79,377.08a3.7,3.7,0,1,1-3.69-3.69A3.7,3.7,0,0,1,324.79,377.08Z" style="fill:#38956B"></path><path d="M337,377.08a3.7,3.7,0,1,1-3.69-3.69A3.7,3.7,0,0,1,337,377.08Z" style="fill:#38956B"></path><rect x="273.85" y="351.22" width="2.13" height="29.56" style="fill:#263238"></rect><rect x="128.41" y="393.67" width="214.3" height="44.14" style="fill:#37474f"></rect><rect x="86.68" y="393.67" width="41.73" height="44.14" transform="translate(215.09 831.48) rotate(180)" style="fill:#455a64"></rect><rect x="136.46" y="400.96" width="131.95" height="3.73" style="fill:#455a64"></rect><rect x="136.46" y="407.42" width="131.95" height="3.73" style="fill:#455a64"></rect><rect x="136.46" y="413.88" width="131.95" height="3.73" style="fill:#455a64"></rect><rect x="136.46" y="420.33" width="131.95" height="3.73" style="fill:#455a64"></rect><rect x="136.46" y="426.79" width="131.95" height="3.73" style="fill:#455a64"></rect><path d="M288.25,404.65a3.7,3.7,0,1,1-3.7-3.69A3.7,3.7,0,0,1,288.25,404.65Z" style="fill:#fff"></path><path d="M300.43,404.65a3.7,3.7,0,1,1-3.7-3.69A3.7,3.7,0,0,1,300.43,404.65Z" style="fill:#38956B"></path><path d="M312.61,404.65a3.7,3.7,0,1,1-3.7-3.69A3.7,3.7,0,0,1,312.61,404.65Z" style="fill:#38956B"></path><path d="M324.79,404.65A3.7,3.7,0,1,1,321.1,401,3.7,3.7,0,0,1,324.79,404.65Z" style="fill:#38956B"></path><path d="M337,404.65a3.7,3.7,0,1,1-3.69-3.69A3.7,3.7,0,0,1,337,404.65Z" style="fill:#38956B"></path><path d="M288.25,415.74a3.7,3.7,0,1,1-3.7-3.7A3.7,3.7,0,0,1,288.25,415.74Z" style="fill:#263238"></path><path d="M300.43,415.74a3.7,3.7,0,1,1-3.7-3.7A3.7,3.7,0,0,1,300.43,415.74Z" style="fill:#38956B"></path><path d="M312.61,415.74a3.7,3.7,0,1,1-3.7-3.7A3.7,3.7,0,0,1,312.61,415.74Z" style="fill:#fff"></path><path d="M324.79,415.74a3.7,3.7,0,1,1-3.69-3.7A3.69,3.69,0,0,1,324.79,415.74Z" style="fill:#263238"></path><path d="M337,415.74a3.7,3.7,0,1,1-3.69-3.7A3.69,3.69,0,0,1,337,415.74Z" style="fill:#38956B"></path><path d="M288.25,426.82a3.7,3.7,0,1,1-3.7-3.69A3.7,3.7,0,0,1,288.25,426.82Z" style="fill:#38956B"></path><path d="M300.43,426.82a3.7,3.7,0,1,1-3.7-3.69A3.7,3.7,0,0,1,300.43,426.82Z" style="fill:#263238"></path><path d="M312.61,426.82a3.7,3.7,0,1,1-3.7-3.69A3.7,3.7,0,0,1,312.61,426.82Z" style="fill:#38956B"></path><path d="M324.79,426.82a3.7,3.7,0,1,1-3.69-3.69A3.69,3.69,0,0,1,324.79,426.82Z" style="fill:#38956B"></path><path d="M337,426.82a3.7,3.7,0,1,1-3.69-3.69A3.69,3.69,0,0,1,337,426.82Z" style="fill:#fff"></path><rect x="273.85" y="400.96" width="2.13" height="29.56" style="fill:#263238"></rect></g><g id="freepik--Floor--inject-2"><polygon points="36.85 452.83 90.14 452.58 143.43 452.5 250 452.33 356.57 452.49 409.86 452.58 463.15 452.83 409.86 453.07 356.57 453.16 250 453.33 143.43 453.16 90.14 453.07 36.85 452.83" style="fill:#263238"></polygon></g><g id="freepik--Device--inject-2"><polygon points="261.86 237.3 122.18 237.3 111.37 142.43 251.05 142.43 261.86 237.3" style="fill:#a6a6a6"></polygon><polygon points="254.25 230.94 128.34 230.94 118.98 148.8 244.89 148.8 254.25 230.94" style="fill:#37474f"></polygon><polygon points="181.48 192.72 180.2 194.24 167.57 183.34 168.86 181.82 181.48 192.72" style="fill:#38956B"></polygon><polygon points="178.23 181.82 180 183.34 170.82 194.24 169.06 192.72 178.23 181.82" style="fill:#38956B"></polygon><polygon points="208.47 192.72 207.19 194.24 194.56 183.34 195.85 181.82 208.47 192.72" style="fill:#38956B"></polygon><polygon points="205.22 181.82 206.99 183.34 197.81 194.24 196.05 192.72 205.22 181.82" style="fill:#38956B"></polygon><polygon points="165.96 203.19 165.62 201.04 214.55 201.04 214.89 203.19 165.96 203.19" style="fill:#38956B"></polygon><rect x="123.16" y="230.94" width="179.69" height="6.36" style="fill:#a6a6a6"></rect><rect x="162.18" y="230.94" width="155.84" height="6.36" style="fill:#c7c7c7"></rect><polygon points="245.34 152.78 244.89 148.8 118.98 148.8 119.43 152.78 245.34 152.78" style="fill:#263238"></polygon><path d="M129.58,150.79a1.07,1.07,0,0,0,1,1,.83.83,0,0,0,.78-1,1.08,1.08,0,0,0-1-1A.83.83,0,0,0,129.58,150.79Z" style="fill:#c7c7c7"></path><path d="M125.93,150.79a1.08,1.08,0,0,0,1,1,.83.83,0,0,0,.78-1,1.08,1.08,0,0,0-1-1A.83.83,0,0,0,125.93,150.79Z" style="fill:#fff"></path><path d="M122.29,150.79a1.08,1.08,0,0,0,1,1,.83.83,0,0,0,.79-1,1.09,1.09,0,0,0-1-1A.83.83,0,0,0,122.29,150.79Z" style="fill:#38956B"></path></g></svg>