<svg width="400" height="854" viewBox="0 0 400 854" fill="none" xmlns="http://www.w3.org/2000/svg">
<rect x="2.5" y="2.5" width="395" height="849" rx="47.5" stroke="#067A46" stroke-width="5"/>
<g clip-path="url(#clip0_16_463)">
<path opacity="0.35" d="M350.667 22.8334H367.333C368.53 22.8334 369.5 23.8034 369.5 25V31C369.5 32.1967 368.53 33.1667 367.333 33.1667H350.667C349.47 33.1667 348.5 32.1967 348.5 31V25C348.5 23.8034 349.47 22.8334 350.667 22.8334Z" fill="white" stroke="white"/>
<path opacity="0.4" d="M371 26V30C371.805 29.6613 372.328 28.8732 372.328 28C372.328 27.1269 371.805 26.3388 371 26" fill="white"/>
<path d="M350 25.6667C350 24.9303 350.597 24.3334 351.333 24.3334H366.667C367.403 24.3334 368 24.9303 368 25.6667V30.3334C368 31.0698 367.403 31.6667 366.667 31.6667H351.333C350.597 31.6667 350 31.0698 350 30.3334V25.6667Z" fill="black"/>
<path fill-rule="evenodd" clip-rule="evenodd" d="M335.33 24.608C337.546 24.6081 339.677 25.4596 341.283 26.9863C341.404 27.1042 341.598 27.1027 341.717 26.983L342.873 25.8163C342.933 25.7556 342.967 25.6734 342.966 25.5878C342.966 25.5022 342.931 25.4204 342.87 25.3603C338.655 21.3208 332.005 21.3208 327.79 25.3603C327.729 25.4203 327.694 25.5021 327.694 25.5877C327.693 25.6733 327.727 25.7556 327.787 25.8163L328.943 26.983C329.062 27.1029 329.256 27.1044 329.377 26.9863C330.983 25.4595 333.114 24.608 335.33 24.608ZM335.33 28.4037C336.548 28.4036 337.722 28.8561 338.624 29.6733C338.746 29.7893 338.939 29.7868 339.058 29.6677L340.212 28.501C340.273 28.4398 340.307 28.3568 340.306 28.2705C340.305 28.1843 340.27 28.102 340.208 28.042C337.459 25.4856 333.204 25.4856 330.455 28.042C330.393 28.102 330.358 28.1843 330.357 28.2706C330.356 28.3569 330.39 28.4399 330.451 28.501L331.605 29.6677C331.724 29.7868 331.917 29.7893 332.039 29.6733C332.941 28.8567 334.114 28.4042 335.33 28.4037ZM337.643 30.9575C337.645 31.044 337.611 31.1274 337.549 31.188L335.552 33.2037C335.493 33.2629 335.414 33.2963 335.33 33.2963C335.247 33.2963 335.167 33.2629 335.109 33.2037L333.111 31.188C333.049 31.1274 333.015 31.0439 333.017 30.9574C333.019 30.8709 333.056 30.789 333.121 30.731C334.396 29.6521 336.264 29.6521 337.54 30.731C337.604 30.789 337.642 30.871 337.643 30.9575Z" fill="black"/>
<path fill-rule="evenodd" clip-rule="evenodd" d="M321.667 22.6666H320.667C320.114 22.6666 319.667 23.1143 319.667 23.6666V32.3333C319.667 32.8856 320.114 33.3333 320.667 33.3333H321.667C322.219 33.3333 322.667 32.8856 322.667 32.3333V23.6666C322.667 23.1143 322.219 22.6666 321.667 22.6666ZM316 25H317C317.552 25 318 25.4477 318 26V32.3333C318 32.8856 317.552 33.3333 317 33.3333H316C315.448 33.3333 315 32.8856 315 32.3333V26C315 25.4477 315.448 25 316 25ZM312.333 27.3333H311.333C310.781 27.3333 310.333 27.781 310.333 28.3333V32.3333C310.333 32.8856 310.781 33.3333 311.333 33.3333H312.333C312.886 33.3333 313.333 32.8856 313.333 32.3333V28.3333C313.333 27.781 312.886 27.3333 312.333 27.3333ZM307.667 29.3333H306.667C306.114 29.3333 305.667 29.781 305.667 30.3333V32.3333C305.667 32.8856 306.114 33.3333 306.667 33.3333H307.667C308.219 33.3333 308.667 32.8856 308.667 32.3333V30.3333C308.667 29.781 308.219 29.3333 307.667 29.3333Z" fill="black"/>
<path d="M49.3207 33.2563C52.0087 33.2563 53.6053 31.1543 53.6053 27.5947C53.6053 26.2544 53.349 25.1265 52.8583 24.2549C52.1478 22.8999 50.9247 22.1675 49.3793 22.1675C47.0795 22.1675 45.4535 23.7129 45.4535 25.8809C45.4535 27.917 46.9183 29.3965 48.9325 29.3965C50.1703 29.3965 51.1737 28.8179 51.6718 27.8145H51.6937C51.6937 27.8145 51.723 27.8145 51.7303 27.8145C51.745 27.8145 51.7963 27.8145 51.7963 27.8145C51.7963 30.2314 50.8807 31.6743 49.3353 31.6743C48.4271 31.6743 47.724 31.1763 47.4823 30.3779H45.6C45.9149 32.1138 47.3871 33.2563 49.3207 33.2563ZM49.3866 27.895C48.1708 27.895 47.3065 27.0308 47.3065 25.8223C47.3065 24.6431 48.2147 23.7422 49.3939 23.7422C50.5731 23.7422 51.4813 24.6577 51.4813 25.8516C51.4813 27.0308 50.5951 27.895 49.3866 27.895Z" fill="black"/>
<path d="M56.6965 33.1538C57.3923 33.1538 57.8683 32.6558 57.8683 31.9966C57.8683 31.3301 57.3923 30.8394 56.6965 30.8394C56.008 30.8394 55.5246 31.3301 55.5246 31.9966C55.5246 32.6558 56.008 33.1538 56.6965 33.1538ZM56.6965 27.6606C57.3923 27.6606 57.8683 27.1699 57.8683 26.5107C57.8683 25.8442 57.3923 25.3535 56.6965 25.3535C56.008 25.3535 55.5246 25.8442 55.5246 26.5107C55.5246 27.1699 56.008 27.6606 56.6965 27.6606Z" fill="black"/>
<path d="M64.7241 33H66.5332V31.0298H67.9614V29.4331H66.5332V22.4312H63.8672C61.9995 25.2437 60.5127 27.5947 59.5605 29.3452V31.0298H64.7241V33ZM61.311 29.3672C62.5415 27.1992 63.6401 25.4634 64.6509 23.9692H64.7534V29.4771H61.311V29.3672Z" fill="black"/>
<path d="M71.99 33H73.8797V22.4312H71.9973L69.2361 24.3647V26.1812L71.8655 24.3354H71.99V33Z" fill="black"/>
<path d="M90 3H309V3C306.894 3.60269 305.418 5.49525 305.345 7.68446L305.317 8.5618V8.5618C305.317 22.0587 294.375 33 280.878 33H118.122C104.625 33 93.6835 22.0587 93.6835 8.5618V8.5618L93.6545 7.68447C93.5823 5.49525 92.1059 3.60269 90 3V3Z" fill="black"/>
</g>
<defs>
<clipPath id="clip0_16_463">
<rect width="375" height="44" fill="white" transform="translate(12 5)"/>
</clipPath>
</defs>
</svg>
