<?xml version="1.0" encoding="iso-8859-1"?>
<!-- Uploaded to: SVG Repo, www.svgrepo.com, Generator: SVG Repo Mixer Tools -->
<svg fill="#000000" height="800px" width="800px" version="1.1" id="Layer_1" xmlns="http://www.w3.org/2000/svg" xmlns:xlink="http://www.w3.org/1999/xlink" 
	 viewBox="0 0 496 496" xml:space="preserve">
<g>
	<g>
		<path d="M480,392v-41.448L453.544,280h-50.416C411.656,256.96,416,232.8,416,208C416,93.312,322.688,0,208,0S0,93.312,0,208
			c0,67.656,32.856,130.76,88,169.8V432h16.64c-0.376,2.624-0.64,5.28-0.64,8c0,30.88,25.12,56,56,56s56-25.12,56-56
			c0-2.72-0.264-5.376-0.64-8h105.28c-0.376,2.624-0.64,5.28-0.64,8c0,30.88,25.12,56,56,56s56-25.12,56-56h48
			c8.824,0,16-7.176,16-16v-16C496,399.176,488.824,392,480,392z M442.456,296l18,48H400c-4.408,0-8-3.592-8-8v-40H442.456z
			 M399.8,200h-80c-1.104-32.624-8.776-61.704-19.624-86.832c28.288-10.336,45.128-23.48,52.864-30.752
			C380.624,114.224,397.944,155.136,399.8,200z M342.072,70.736c-6.472,6.064-21.888,18.248-48.776,27.848
			c-19.112-37.64-44.368-65.128-61.528-81.064C274.432,22.816,312.792,42.128,342.072,70.736z M216,24.984
			c15.352,13.736,41.616,40.632,61.472,78.472c-16.848,4.52-37.216,7.72-61.472,8.32V24.984z M216,200v-72.224
			c27.184-0.64,49.896-4.376,68.592-9.64c10.536,23.76,18.064,51.208,19.2,81.872H216V200z M216,216h87.704
			c-0.2,5.312-0.6,10.64-1.208,16H216V216z M200,25.008v86.768c-24.176-0.608-44.52-3.84-61.384-8.384
			C158.456,65.64,184.664,38.76,200,25.008z M112.208,200c1.144-30.64,8.696-58.088,19.248-81.856
			c18.68,5.256,41.384,8.992,68.544,9.632V200H112.208z M200,216v16h-86.504c-0.6-5.36-1-10.688-1.208-16H200z M184.232,17.528
			c-17.144,15.92-42.368,43.376-61.48,80.968C95.984,88.896,80.496,76.76,73.96,70.72C103.24,42.128,141.584,22.824,184.232,17.528z
			 M62.952,82.416c7.744,7.272,24.576,20.424,52.864,30.752c-10.848,25.128-18.52,54.208-19.624,86.832h-80
			C18.056,155.136,35.376,114.224,62.952,82.416z M88,357.792c-4.92-3.952-9.656-8.08-14.128-12.448
			c2.88-2.688,7.552-6.576,14.128-10.92V357.792z M88,232v83.704c-12.072,6.88-20.344,13.544-25.072,17.968
			C34.736,301.136,18.064,259.808,16.248,216h80.048c0.192,5.312,0.56,10.64,1.128,16H88z M160,480c-22.056,0-40-17.944-40-40
			c0-22.056,17.944-40,40-40c22.056,0,40,17.944,40,40C200,462.056,182.056,480,160,480z M320,344H136v16h184v56H210.52
			c-9.008-18.888-28.24-32-50.52-32c-22.28,0-41.512,13.112-50.52,32H104v-56h16v-16h-16v-32h216V344z M320,296H104v-48h216V296z
			 M318.584,232c0.56-5.36,0.936-10.688,1.128-16H399.8c-0.904,22.08-5.568,43.544-13.864,64H336v-48H318.584z M376,480
			c-22.056,0-40-17.944-40-40c0-22.056,17.944-40,40-40c22.056,0,40,17.944,40,40C416,462.056,398.056,480,376,480z M416,392v8.88
			c-10.176-10.4-24.336-16.88-40-16.88s-29.824,6.48-40,16.88V296h40v40c0,13.232,10.768,24,24,24h64v32H416z M480,424h-48v-16h48
			V424z"/>
	</g>
</g>
</svg>