<svg width="477" height="246" viewBox="0 0 477 246" fill="none" xmlns="http://www.w3.org/2000/svg">
<path d="M198.78 194.7C191.76 194.7 185.82 193.38 180.96 190.74C176.1 188.04 172.41 184.47 169.89 180.03C167.43 175.59 166.2 170.7 166.2 165.36C166.2 160.68 166.98 156.48 168.54 152.76C170.1 148.98 172.5 145.74 175.74 143.04C178.98 140.28 183.18 138.03 188.34 136.29C192.24 135.03 196.8 133.89 202.02 132.87C207.3 131.85 213 130.92 219.12 130.08C225.3 129.18 231.75 128.22 238.47 127.2L230.73 131.61C230.79 124.89 229.29 119.94 226.23 116.76C223.17 113.58 218.01 111.99 210.75 111.99C206.37 111.99 202.14 113.01 198.06 115.05C193.98 117.09 191.13 120.6 189.51 125.58L169.71 119.37C172.11 111.15 176.67 104.55 183.39 99.57C190.17 94.59 199.29 92.1 210.75 92.1C219.39 92.1 226.98 93.51 233.52 96.33C240.12 99.15 245.01 103.77 248.19 110.19C249.93 113.61 250.98 117.12 251.34 120.72C251.7 124.26 251.88 128.13 251.88 132.33V192H232.89V170.94L236.04 174.36C231.66 181.38 226.53 186.54 220.65 189.84C214.83 193.08 207.54 194.7 198.78 194.7ZM203.1 177.42C208.02 177.42 212.22 176.55 215.7 174.81C219.18 173.07 221.94 170.94 223.98 168.42C226.08 165.9 227.49 163.53 228.21 161.31C229.35 158.55 229.98 155.4 230.1 151.86C230.28 148.26 230.37 145.35 230.37 143.13L237.03 145.11C230.49 146.13 224.88 147.03 220.2 147.81C215.52 148.59 211.5 149.34 208.14 150.06C204.78 150.72 201.81 151.47 199.23 152.31C196.71 153.21 194.58 154.26 192.84 155.46C191.1 156.66 189.75 158.04 188.79 159.6C187.89 161.16 187.44 162.99 187.44 165.09C187.44 167.49 188.04 169.62 189.24 171.48C190.44 173.28 192.18 174.72 194.46 175.8C196.8 176.88 199.68 177.42 203.1 177.42ZM342.541 192V145.2C342.541 142.14 342.331 138.75 341.911 135.03C341.491 131.31 340.501 127.74 338.941 124.32C337.441 120.84 335.161 117.99 332.101 115.77C329.101 113.55 325.021 112.44 319.861 112.44C317.101 112.44 314.371 112.89 311.671 113.79C308.971 114.69 306.511 116.25 304.291 118.47C302.131 120.63 300.391 123.63 299.071 127.47C297.751 131.25 297.091 136.11 297.091 142.05L284.221 136.56C284.221 128.28 285.811 120.78 288.991 114.06C292.231 107.34 296.971 102 303.211 98.04C309.451 94.02 317.131 92.01 326.251 92.01C333.451 92.01 339.391 93.21 344.071 95.61C348.751 98.01 352.471 101.07 355.231 104.79C357.991 108.51 360.031 112.47 361.351 116.67C362.671 120.87 363.511 124.86 363.871 128.64C364.291 132.36 364.501 135.39 364.501 137.73V192H342.541ZM275.131 192V62.4H294.481V130.62H297.091V192H275.131ZM389.787 80.04V60.15H411.477V80.04H389.787ZM389.787 192V94.8H411.477V192H389.787ZM440.236 192V59.7H461.926V192H440.236Z" fill="#18181B"/>
<path d="M77.0961 101.354C77.0961 93.5131 83.6324 90.4925 94.1118 90.4925C109.372 90.4925 128.739 95.1669 144 103.396V56.1856C127.372 49.5425 110.745 90.4925 94.1118 90.4925C53.4374 90.4925 26.3643 68.2456 26.3643 103.751C26.3643 159.264 102.583 150.264 102.583 174.204C102.583 183.485 94.5336 186.472 83.3511 186.472C66.7574 186.472 45.3093 179.615 28.4736 170.474V215.649C45.7944 223.122 64.487 186.43 83.3511 186.472C125.049 186.472 153.737 209.107 153.737 173.039C153.737 113.206 77.0961 123.928 77.0961 101.354Z" fill="#067A46"/>
</svg>
