<svg xmlns="http://www.w3.org/2000/svg" width="59.999" height="60.001" viewBox="0 0 59.999 60.001">
  <path id="Color_Overlay" data-name="Color Overlay" d="M274,8868.866c0,.734-.031,1.469-.085,2.2l-27.843,27.843q-1.1.083-2.207.087Zm-39.1,28.794,37.762-37.764c.172.55.324,1.1.462,1.657l-36.567,36.566Q235.721,8897.917,234.9,8897.66Zm35.848-15.231a30.312,30.312,0,0,1-13.317,13.315Zm-42.907,11.982,41.572-41.572c.277.438.54.878.793,1.327L229.165,8895.2C228.718,8894.951,228.276,8894.686,227.838,8894.411ZM222.7,8890.3c-.176-.174-.351-.354-.523-.533l42.588-42.588c.181.172.36.344.536.522s.351.355.523.536l-42.588,42.588C223.056,8890.652,222.875,8890.478,222.7,8890.3Zm-4.9-6.463,41.038-41.038c.447.25.889.516,1.327.793l-41.572,41.571Q218.174,8884.506,217.8,8883.836Zm-2.917-7.391,36.564-36.566c.556.139,1.11.29,1.659.46L215.34,8878.1C215.17,8877.556,215.016,8877,214.88,8876.445Zm-.793-9.516,27.843-27.844c.733-.056,1.47-.085,2.2-.087L214,8869.134C214,8868.4,214.031,8867.662,214.087,8866.93Zm8.766-19.075a30.209,30.209,0,0,1,7.718-5.6l-13.318,13.318A30.193,30.193,0,0,1,222.853,8847.854Z" transform="translate(-214 -8838.999)" fill="#84faa1"/>
</svg>
