<svg xmlns="http://www.w3.org/2000/svg" id="_001-payment-security" width="40.603" height="40.604" data-name="001-payment-security" viewBox="0 0 40.603 40.604"><g id="Group_2181" data-name="Group 2181" transform="translate(0 0)"><path id="Path_3246" fill="#171717" d="M33.47,353.747a.6.6,0,0,0-.595.595v9.775a.992.992,0,0,1-.991.991H2.184a.992.992,0,0,1-.991-.991v-7.935a.595.595,0,1,0-1.19,0v7.935A2.183,2.183,0,0,0,2.184,366.3h29.7a2.183,2.183,0,0,0,2.181-2.181v-9.775A.6.6,0,0,0,33.47,353.747Z" data-name="Path 3246" transform="translate(-0.003 -325.694)"/><path id="Path_3247" fill="#171717" d="M66.156,433.576a.595.595,0,1,0,0-1.19H54.816a.595.595,0,1,0,0,1.19Z" data-name="Path 3247" transform="translate(-49.921 -398.097)"/><path id="Path_3248" fill="#171717" d="M236.331,433.576a.595.595,0,1,0,0-1.19h-1.8a.595.595,0,1,0,0,1.19Z" data-name="Path 3248" transform="translate(-215.386 -398.097)"/><path id="Path_3249" fill="#171717" d="M288.17,433.576a.595.595,0,1,0,0-1.19h-1.8a.595.595,0,1,0,0,1.19Z" data-name="Path 3249" transform="translate(-263.114 -398.097)"/><path id="Path_3250" fill="#171717" d="M340.011,433.576a.595.595,0,1,0,0-1.19h-1.8a.595.595,0,0,0,0,1.19Z" data-name="Path 3250" transform="translate(-310.844 -398.097)"/><path id="Path_3251" fill="#171717" d="M290.864,196.963a.6.6,0,0,0-.812-.218l-.492.284v-.568a.595.595,0,0,0-1.19,0v.568l-.492-.284a.595.595,0,0,0-.595,1.03l.492.284-.492.284a.595.595,0,1,0,.595,1.03l.492-.284v.568a.595.595,0,0,0,1.19,0v-.568l.492.284a.595.595,0,1,0,.595-1.03l-.492-.284.492-.284A.6.6,0,0,0,290.864,196.963Z" data-name="Path 3251" transform="translate(-264.227 -180.334)"/><path id="Path_3252" fill="#171717" d="M351.244,196.963a.6.6,0,0,0-.812-.218l-.492.284v-.568a.595.595,0,0,0-1.19,0v.568l-.492-.284a.595.595,0,1,0-.595,1.03l.492.284-.492.284a.595.595,0,1,0,.595,1.03l.492-.284v.568a.595.595,0,0,0,1.19,0v-.568l.492.284a.595.595,0,0,0,.595-1.03l-.492-.284.492-.284A.6.6,0,0,0,351.244,196.963Z" data-name="Path 3252" transform="translate(-319.819 -180.334)"/><path id="Path_3253" fill="#171717" d="M410.32,196.462a.595.595,0,0,0-1.19,0v.568l-.492-.284a.595.595,0,0,0-.595,1.03l.492.284-.492.284a.595.595,0,1,0,.595,1.03l.492-.284v.568a.595.595,0,1,0,1.19,0v-.568l.492.284a.595.595,0,1,0,.595-1.03l-.492-.284.492-.284a.595.595,0,1,0-.595-1.03l-.492.284Z" data-name="Path 3253" transform="translate(-375.411 -180.334)"/><path id="Path_3254" fill="#171717" d="M40.011,3.005H35.4a5.768,5.768,0,0,1-4-1.6h0L30.213.275a.99.99,0,0,0-1.369,0L27.67,1.4a5.767,5.767,0,0,1-4,1.607H19.057a.6.6,0,0,0-.595.595V15.592a10.728,10.728,0,0,0,1.165,4.855H1.193V18.874a.992.992,0,0,1,.991-.991H16.527a.595.595,0,0,0,0-1.19H2.184A2.183,2.183,0,0,0,0,18.874v8.646a.595.595,0,0,0,1.19,0V25.39H24.644l4.368,2.746a1,1,0,0,0,1.056,0l5.538-3.485a10.7,10.7,0,0,0,5-9.055V3.6a.6.6,0,0,0-.595-.595ZM1.193,21.636H20.334A10.742,10.742,0,0,0,22.811,24.2H1.193V21.636ZM39.417,15.6a9.459,9.459,0,0,1-4.445,8.049L29.54,27.063,24.1,23.643a9.459,9.459,0,0,1-4.448-8.051V4.2h4.014a6.951,6.951,0,0,0,4.826-1.937l1.037-.992,1.049,1h0A6.952,6.952,0,0,0,35.4,4.195h4.021V15.6Z" data-name="Path 3254" transform="translate(-0.003 0)"/><path id="Path_3255" fill="#171717" d="M349.634,64.249a.771.771,0,0,1-.77-.77.595.595,0,1,0-1.19,0,1.963,1.963,0,0,0,1.365,1.867v.722a.595.595,0,1,0,1.19,0v-.722a1.96,1.96,0,0,0-.595-3.827l-.043,0a.77.77,0,1,1,.814-.769.595.595,0,0,0,1.19,0,1.963,1.963,0,0,0-1.365-1.867v-.722a.595.595,0,0,0-1.19,0v.722a1.96,1.96,0,0,0,.595,3.827l.043,0a.77.77,0,0,1-.043,1.54Z" data-name="Path 3255" transform="translate(-320.103 -53.002)"/></g></svg>