<svg width="214" height="214" viewBox="0 0 214 214" fill="none" xmlns="http://www.w3.org/2000/svg">
<mask id="mask0_41_858" style="mask-type:alpha" maskUnits="userSpaceOnUse" x="0" y="0" width="214" height="214">
<rect width="214" height="214" rx="12" fill="#056835"/>
</mask>
<g mask="url(#mask0_41_858)">
<path d="M96.2473 77.2954C96.2473 70.761 101.694 68.2438 110.427 68.2438C123.144 68.2438 139.283 72.1391 152 78.9969V39.6547C138.144 34.1188 124.288 68.2438 110.427 68.2438C76.5316 68.2438 53.9707 49.7047 53.9707 79.2922C53.9707 125.553 117.486 118.053 117.486 138.003C117.486 145.738 110.779 148.227 101.46 148.227C87.6316 148.227 69.7582 142.513 55.7285 134.895V172.541C70.1625 178.768 85.7396 148.192 101.46 148.227C136.208 148.227 160.114 167.089 160.114 137.033C160.114 87.1719 96.2473 96.1063 96.2473 77.2954Z" fill="#067A46"/>
</g>
</svg>
