<svg width="214" height="214" viewBox="0 0 214 214" fill="none" xmlns="http://www.w3.org/2000/svg">
<mask id="mask0_4_13" style="mask-type:alpha" maskUnits="userSpaceOnUse" x="0" y="0" width="214" height="214">
<rect width="214" height="214" rx="12" fill="#056835"/>
</mask>
<g mask="url(#mask0_4_13)">
<rect width="214" height="214" rx="12" fill="#067A46"/>
<path d="M96.2468 77.2954C96.2468 70.761 101.694 68.2438 110.426 68.2438C123.144 68.2438 139.283 72.1391 152 78.9969V39.6547C138.144 34.1188 124.287 68.2438 110.426 68.2438C76.5312 68.2438 53.9702 49.7047 53.9702 79.2922C53.9702 125.553 117.486 118.053 117.486 138.003C117.486 145.738 110.778 148.227 101.459 148.227C87.6312 148.227 69.7577 142.513 55.728 134.895V172.541C70.162 178.768 85.7391 148.192 101.459 148.227C136.208 148.227 160.114 167.089 160.114 137.033C160.114 87.1719 96.2468 96.1063 96.2468 77.2954Z" fill="white"/>
</g>
</svg>
